solid CATIA STL
  facet normal  0.000000e+000  1.000000e+000  0.000000e+000
    outer loop
      vertex  1.500000e+000  5.000000e+001 -2.000000e+000
      vertex -1.500000e+000  5.000000e+001 -2.000000e+000
      vertex  1.500000e+000  5.000000e+001 -4.504057e-002
    endloop
  endfacet
  facet normal  0.000000e+000  1.000000e+000  0.000000e+000
    outer loop
      vertex  1.500000e+000  5.000000e+001 -4.504057e-002
      vertex -1.500000e+000  5.000000e+001 -2.000000e+000
      vertex -1.500000e+000  5.000000e+001 -4.504057e-002
    endloop
  endfacet
  facet normal  0.000000e+000  1.000000e+000  0.000000e+000
    outer loop
      vertex -2.373527e-014  6.000000e+001  0.000000e+000
      vertex  1.500000e+000  6.000000e+001  0.000000e+000
      vertex  1.500000e+000  6.000000e+001 -4.504057e-002
    endloop
  endfacet
  facet normal  -0.000000e+000  1.000000e+000  0.000000e+000
    outer loop
      vertex -1.500000e+000  6.000000e+001 -4.504057e-002
      vertex -1.500000e+000  6.000000e+001  0.000000e+000
      vertex -2.373527e-014  6.000000e+001  0.000000e+000
    endloop
  endfacet
  facet normal  0.000000e+000  8.311028e-001 -5.561189e-001
    outer loop
      vertex  1.500000e+000  6.000000e+001  0.000000e+000
      vertex -2.373527e-014  6.000000e+001  0.000000e+000
      vertex  1.500000e+000  9.343111e+001  4.996177e+001
    endloop
  endfacet
  facet normal  0.000000e+000  8.311028e-001 -5.561189e-001
    outer loop
      vertex  1.500000e+000  9.343111e+001  4.996177e+001
      vertex -2.373527e-014  6.000000e+001  0.000000e+000
      vertex -1.500000e+000  6.000000e+001  0.000000e+000
    endloop
  endfacet
  facet normal  0.000000e+000  8.311028e-001 -5.561189e-001
    outer loop
      vertex  1.500000e+000  9.343111e+001  4.996177e+001
      vertex -1.500000e+000  6.000000e+001  0.000000e+000
      vertex -1.500000e+000  9.343111e+001  4.996177e+001
    endloop
  endfacet
  facet normal  1.000000e+000  0.000000e+000  0.000000e+000
    outer loop
      vertex  1.500000e+000  6.000000e+001  0.000000e+000
      vertex  1.500000e+000  9.343111e+001  4.996177e+001
      vertex  1.500000e+000  4.343111e+001  4.996177e+001
    endloop
  endfacet
  facet normal  1.000000e+000  0.000000e+000  0.000000e+000
    outer loop
      vertex  1.500000e+000  6.000000e+001  0.000000e+000
      vertex  1.500000e+000  4.343111e+001  4.996177e+001
      vertex  1.500000e+000  0.000000e+000  0.000000e+000
    endloop
  endfacet
  facet normal  1.000000e+000  -0.000000e+000  0.000000e+000
    outer loop
      vertex  1.500000e+000  6.000000e+001  0.000000e+000
      vertex  1.500000e+000  0.000000e+000  0.000000e+000
      vertex  1.500000e+000  0.000000e+000 -4.504057e-002
    endloop
  endfacet
  facet normal  1.000000e+000  0.000000e+000  0.000000e+000
    outer loop
      vertex  1.500000e+000  6.000000e+001  0.000000e+000
      vertex  1.500000e+000  0.000000e+000 -4.504057e-002
      vertex  1.500000e+000  1.000000e+001 -4.504057e-002
    endloop
  endfacet
  facet normal  1.000000e+000  0.000000e+000  0.000000e+000
    outer loop
      vertex  1.500000e+000  6.000000e+001  0.000000e+000
      vertex  1.500000e+000  1.000000e+001 -4.504057e-002
      vertex  1.500000e+000  5.000000e+001 -4.504057e-002
    endloop
  endfacet
  facet normal  1.000000e+000  0.000000e+000  0.000000e+000
    outer loop
      vertex  1.500000e+000  6.000000e+001  0.000000e+000
      vertex  1.500000e+000  5.000000e+001 -4.504057e-002
      vertex  1.500000e+000  6.000000e+001 -4.504057e-002
    endloop
  endfacet
  facet normal  1.000000e+000  0.000000e+000  0.000000e+000
    outer loop
      vertex  1.500000e+000  1.000000e+001 -2.000000e+000
      vertex  1.500000e+000  5.000000e+001 -2.000000e+000
      vertex  1.500000e+000  1.000000e+001 -4.504057e-002
    endloop
  endfacet
  facet normal  1.000000e+000  -0.000000e+000  0.000000e+000
    outer loop
      vertex  1.500000e+000  1.000000e+001 -4.504057e-002
      vertex  1.500000e+000  5.000000e+001 -2.000000e+000
      vertex  1.500000e+000  5.000000e+001 -4.504057e-002
    endloop
  endfacet
  facet normal -1.000000e+000  0.000000e+000  0.000000e+000
    outer loop
      vertex -1.500000e+000  6.000000e+001  0.000000e+000
      vertex -1.500000e+000  6.000000e+001 -4.504057e-002
      vertex -1.500000e+000  5.000000e+001 -4.504057e-002
    endloop
  endfacet
  facet normal -1.000000e+000  0.000000e+000  0.000000e+000
    outer loop
      vertex -1.500000e+000  6.000000e+001  0.000000e+000
      vertex -1.500000e+000  5.000000e+001 -4.504057e-002
      vertex -1.500000e+000  1.000000e+001 -4.504057e-002
    endloop
  endfacet
  facet normal -1.000000e+000  0.000000e+000  0.000000e+000
    outer loop
      vertex -1.500000e+000  6.000000e+001  0.000000e+000
      vertex -1.500000e+000  1.000000e+001 -4.504057e-002
      vertex -1.500000e+000  0.000000e+000 -4.504057e-002
    endloop
  endfacet
  facet normal -1.000000e+000  0.000000e+000  0.000000e+000
    outer loop
      vertex -1.500000e+000  6.000000e+001  0.000000e+000
      vertex -1.500000e+000  0.000000e+000 -4.504057e-002
      vertex -1.500000e+000  0.000000e+000  0.000000e+000
    endloop
  endfacet
  facet normal -1.000000e+000  0.000000e+000  0.000000e+000
    outer loop
      vertex -1.500000e+000  6.000000e+001  0.000000e+000
      vertex -1.500000e+000  0.000000e+000  0.000000e+000
      vertex -1.500000e+000  4.343111e+001  4.996177e+001
    endloop
  endfacet
  facet normal -1.000000e+000  0.000000e+000  0.000000e+000
    outer loop
      vertex -1.500000e+000  6.000000e+001  0.000000e+000
      vertex -1.500000e+000  4.343111e+001  4.996177e+001
      vertex -1.500000e+000  9.343111e+001  4.996177e+001
    endloop
  endfacet
  facet normal -1.000000e+000  0.000000e+000  0.000000e+000
    outer loop
      vertex -1.500000e+000  1.000000e+001 -2.000000e+000
      vertex -1.500000e+000  1.000000e+001 -4.504057e-002
      vertex -1.500000e+000  5.000000e+001 -2.000000e+000
    endloop
  endfacet
  facet normal -1.000000e+000  0.000000e+000  0.000000e+000
    outer loop
      vertex -1.500000e+000  5.000000e+001 -2.000000e+000
      vertex -1.500000e+000  1.000000e+001 -4.504057e-002
      vertex -1.500000e+000  5.000000e+001 -4.504057e-002
    endloop
  endfacet
  facet normal  0.000000e+000  0.000000e+000 -1.000000e+000
    outer loop
      vertex  1.500000e+000  5.000000e+001 -2.000000e+000
      vertex  1.500000e+000  1.000000e+001 -2.000000e+000
      vertex -1.500000e+000  5.000000e+001 -2.000000e+000
    endloop
  endfacet
  facet normal  0.000000e+000  0.000000e+000 -1.000000e+000
    outer loop
      vertex -1.500000e+000  5.000000e+001 -2.000000e+000
      vertex  1.500000e+000  1.000000e+001 -2.000000e+000
      vertex -1.500000e+000  1.000000e+001 -2.000000e+000
    endloop
  endfacet
  facet normal  3.001352e-002  0.000000e+000 -9.995494e-001
    outer loop
      vertex -1.500000e+000  6.000000e+001 -4.504057e-002
      vertex -2.373527e-014  6.000000e+001  0.000000e+000
      vertex -1.500000e+000  5.000000e+001 -4.504057e-002
    endloop
  endfacet
  facet normal -3.001231e-002  9.003691e-003 -9.995090e-001
    outer loop
      vertex -1.500000e+000  5.000000e+001 -4.504057e-002
      vertex -2.373527e-014  6.000000e+001  0.000000e+000
      vertex  1.500000e+000  6.000000e+001 -4.504057e-002
    endloop
  endfacet
  facet normal  0.000000e+000  -0.000000e+000 -1.000000e+000
    outer loop
      vertex -1.500000e+000  5.000000e+001 -4.504057e-002
      vertex  1.500000e+000  6.000000e+001 -4.504057e-002
      vertex  1.500000e+000  5.000000e+001 -4.504057e-002
    endloop
  endfacet
  facet normal  0.000000e+000 -1.000000e+000  -0.000000e+000
    outer loop
      vertex  1.500000e+000  1.000000e+001 -2.000000e+000
      vertex  1.500000e+000  1.000000e+001 -4.504057e-002
      vertex -1.500000e+000  1.000000e+001 -2.000000e+000
    endloop
  endfacet
  facet normal  0.000000e+000 -1.000000e+000  0.000000e+000
    outer loop
      vertex -1.500000e+000  1.000000e+001 -2.000000e+000
      vertex  1.500000e+000  1.000000e+001 -4.504057e-002
      vertex -1.500000e+000  1.000000e+001 -4.504057e-002
    endloop
  endfacet
  facet normal  -0.000000e+000 -1.000000e+000  -0.000000e+000
    outer loop
      vertex  1.500000e+000  0.000000e+000 -4.504057e-002
      vertex  1.500000e+000  0.000000e+000  0.000000e+000
      vertex  9.571421e-015  0.000000e+000  0.000000e+000
    endloop
  endfacet
  facet normal  0.000000e+000 -1.000000e+000  0.000000e+000
    outer loop
      vertex  9.571421e-015  0.000000e+000  0.000000e+000
      vertex -1.500000e+000  0.000000e+000  0.000000e+000
      vertex -1.500000e+000  0.000000e+000 -4.504057e-002
    endloop
  endfacet
  facet normal  0.000000e+000 -7.547096e-001  6.560591e-001
    outer loop
      vertex -1.500000e+000  0.000000e+000  0.000000e+000
      vertex  9.571421e-015  0.000000e+000  0.000000e+000
      vertex -1.500000e+000  4.343111e+001  4.996177e+001
    endloop
  endfacet
  facet normal  0.000000e+000 -7.547096e-001  6.560591e-001
    outer loop
      vertex -1.500000e+000  4.343111e+001  4.996177e+001
      vertex  9.571421e-015  0.000000e+000  0.000000e+000
      vertex  1.500000e+000  0.000000e+000  0.000000e+000
    endloop
  endfacet
  facet normal  0.000000e+000 -7.547096e-001  6.560591e-001
    outer loop
      vertex -1.500000e+000  4.343111e+001  4.996177e+001
      vertex  1.500000e+000  0.000000e+000  0.000000e+000
      vertex  1.500000e+000  4.343111e+001  4.996177e+001
    endloop
  endfacet
  facet normal  3.001352e-002  0.000000e+000 -9.995494e-001
    outer loop
      vertex -1.500000e+000  0.000000e+000 -4.504057e-002
      vertex -1.500000e+000  1.000000e+001 -4.504057e-002
      vertex  9.571421e-015  0.000000e+000  0.000000e+000
    endloop
  endfacet
  facet normal  0.000000e+000 -4.504011e-003 -9.999899e-001
    outer loop
      vertex  9.571421e-015  0.000000e+000  0.000000e+000
      vertex -1.500000e+000  1.000000e+001 -4.504057e-002
      vertex  1.500000e+000  1.000000e+001 -4.504057e-002
    endloop
  endfacet
  facet normal -3.001352e-002  -0.000000e+000 -9.995494e-001
    outer loop
      vertex  9.571421e-015  0.000000e+000  0.000000e+000
      vertex  1.500000e+000  1.000000e+001 -4.504057e-002
      vertex  1.500000e+000  0.000000e+000 -4.504057e-002
    endloop
  endfacet
  facet normal  0.000000e+000  0.000000e+000  1.000000e+000
    outer loop
      vertex  1.500000e+000  4.343111e+001  4.996177e+001
      vertex  1.500000e+000  9.343111e+001  4.996177e+001
      vertex -1.500000e+000  4.343111e+001  4.996177e+001
    endloop
  endfacet
  facet normal  0.000000e+000  0.000000e+000  1.000000e+000
    outer loop
      vertex -1.500000e+000  4.343111e+001  4.996177e+001
      vertex  1.500000e+000  9.343111e+001  4.996177e+001
      vertex -1.500000e+000  9.343111e+001  4.996177e+001
    endloop
  endfacet
endsolid CATIA STL
