solid CATIA STL
  facet normal  1.000000e+000  -0.000000e+000  0.000000e+000
    outer loop
      vertex  4.000000e+001  4.316866e+000  3.361042e+001
      vertex  4.000000e+001  3.278869e-015  3.360000e+001
      vertex  4.000000e+001  2.750000e+000  3.286314e+001
    endloop
  endfacet
  facet normal  1.000000e+000  0.000000e+000  -0.000000e+000
    outer loop
      vertex  4.000000e+001 -8.078280e-015  2.110000e+001
      vertex  4.000000e+001  4.925697e+000  2.051701e+001
      vertex  4.000000e+001  1.060645e+001  2.096785e+001
    endloop
  endfacet
  facet normal  1.000000e+000  0.000000e+000  0.000000e+000
    outer loop
      vertex  4.000000e+001 -8.078280e-015  2.110000e+001
      vertex  4.000000e+001  1.060645e+001  2.096785e+001
      vertex  4.000000e+001  1.052272e+001  2.121641e+001
    endloop
  endfacet
  facet normal  1.000000e+000  0.000000e+000  0.000000e+000
    outer loop
      vertex  4.000000e+001 -8.078280e-015  2.110000e+001
      vertex  4.000000e+001  1.052272e+001  2.121641e+001
      vertex  4.000000e+001  1.032470e+001  2.138839e+001
    endloop
  endfacet
  facet normal  1.000000e+000  0.000000e+000  0.000000e+000
    outer loop
      vertex  4.000000e+001 -8.078280e-015  2.110000e+001
      vertex  4.000000e+001  1.032470e+001  2.138839e+001
      vertex  4.000000e+001  7.569959e+000  2.251129e+001
    endloop
  endfacet
  facet normal  9.999999e-001  0.000000e+000  0.000000e+000
    outer loop
      vertex  4.000000e+001 -8.078280e-015  2.110000e+001
      vertex  4.000000e+001  7.569959e+000  2.251129e+001
      vertex  4.000000e+001 -4.174469e-015  2.260000e+001
    endloop
  endfacet
  facet normal  1.000000e+000  0.000000e+000  0.000000e+000
    outer loop
      vertex  4.000000e+001 -8.078280e-015  2.110000e+001
      vertex  4.000000e+001 -4.174469e-015  2.260000e+001
      vertex  4.000000e+001 -7.569926e+000  2.251130e+001
    endloop
  endfacet
  facet normal  1.000000e+000  0.000000e+000  0.000000e+000
    outer loop
      vertex  4.000000e+001 -8.078280e-015  2.110000e+001
      vertex  4.000000e+001 -7.569926e+000  2.251130e+001
      vertex  4.000000e+001 -1.032470e+001  2.138839e+001
    endloop
  endfacet
  facet normal  1.000000e+000  0.000000e+000  0.000000e+000
    outer loop
      vertex  4.000000e+001 -8.078280e-015  2.110000e+001
      vertex  4.000000e+001 -1.032470e+001  2.138839e+001
      vertex  4.000000e+001 -1.052272e+001  2.121641e+001
    endloop
  endfacet
  facet normal  1.000000e+000  0.000000e+000  0.000000e+000
    outer loop
      vertex  4.000000e+001 -8.078280e-015  2.110000e+001
      vertex  4.000000e+001 -1.052272e+001  2.121641e+001
      vertex  4.000000e+001 -1.060645e+001  2.096785e+001
    endloop
  endfacet
  facet normal  1.000000e+000  -0.000000e+000  0.000000e+000
    outer loop
      vertex  4.000000e+001 -8.078280e-015  2.110000e+001
      vertex  4.000000e+001 -1.060645e+001  2.096785e+001
      vertex  4.000000e+001 -4.925697e+000  2.051701e+001
    endloop
  endfacet
  facet normal  1.000000e+000  -0.000000e+000  -0.000000e+000
    outer loop
      vertex  4.000000e+001 -1.060645e+001  2.096785e+001
      vertex  4.000000e+001 -1.055284e+001  2.071111e+001
      vertex  4.000000e+001 -4.925697e+000  2.051701e+001
    endloop
  endfacet
  facet normal  1.000000e+000  0.000000e+000  0.000000e+000
    outer loop
      vertex  4.000000e+001 -4.925697e+000  2.051701e+001
      vertex  4.000000e+001 -1.055284e+001  2.071111e+001
      vertex  4.000000e+001 -9.579200e+000  1.880024e+001
    endloop
  endfacet
  facet normal  1.000000e+000  0.000000e+000  0.000000e+000
    outer loop
      vertex  4.000000e+001  9.579200e+000  1.880024e+001
      vertex  4.000000e+001  1.055284e+001  2.071111e+001
      vertex  4.000000e+001  4.925697e+000  2.051701e+001
    endloop
  endfacet
  facet normal  1.000000e+000  0.000000e+000  0.000000e+000
    outer loop
      vertex  4.000000e+001  4.925697e+000  2.051701e+001
      vertex  4.000000e+001  1.055284e+001  2.071111e+001
      vertex  4.000000e+001  1.060645e+001  2.096785e+001
    endloop
  endfacet
  facet normal  1.000000e+000  0.000000e+000  0.000000e+000
    outer loop
      vertex  4.000000e+001  4.316866e+000  3.361042e+001
      vertex  4.000000e+001  1.537930e+000  3.492897e+001
      vertex  4.000000e+001  3.278869e-015  3.360000e+001
    endloop
  endfacet
  facet normal  1.000000e+000  0.000000e+000  -0.000000e+000
    outer loop
      vertex  4.000000e+001  3.278869e-015  3.360000e+001
      vertex  4.000000e+001  1.537930e+000  3.492897e+001
      vertex  4.000000e+001 -1.537954e+000  3.492896e+001
    endloop
  endfacet
  facet normal  1.000000e+000  0.000000e+000  0.000000e+000
    outer loop
      vertex  4.000000e+001  3.278869e-015  3.360000e+001
      vertex  4.000000e+001 -1.537954e+000  3.492896e+001
      vertex  4.000000e+001 -4.316885e+000  3.361040e+001
    endloop
  endfacet
  facet normal  1.000000e+000  0.000000e+000  0.000000e+000
    outer loop
      vertex  4.000000e+001 -6.225233e+000  2.414060e+001
      vertex  4.000000e+001 -2.750000e+000  2.333686e+001
      vertex  4.000000e+001 -6.383538e+000  2.522764e+001
    endloop
  endfacet
  facet normal  1.000000e+000  -0.000000e+000  0.000000e+000
    outer loop
      vertex  4.000000e+001 -6.383538e+000  2.522764e+001
      vertex  4.000000e+001 -2.750000e+000  2.333686e+001
      vertex  4.000000e+001 -4.763140e+000  2.535000e+001
    endloop
  endfacet
  facet normal  1.000000e+000  0.000000e+000  0.000000e+000
    outer loop
      vertex  4.000000e+001 -6.383538e+000  2.522764e+001
      vertex  4.000000e+001 -4.763140e+000  2.535000e+001
      vertex  4.000000e+001 -6.998571e+000  2.824141e+001
    endloop
  endfacet
  facet normal  1.000000e+000  0.000000e+000  0.000000e+000
    outer loop
      vertex  4.000000e+001 -6.998571e+000  2.824141e+001
      vertex  4.000000e+001 -4.763140e+000  2.535000e+001
      vertex  4.000000e+001 -5.500000e+000  2.810000e+001
    endloop
  endfacet
  facet normal  1.000000e+000  0.000000e+000  0.000000e+000
    outer loop
      vertex  4.000000e+001 -6.998571e+000  2.824141e+001
      vertex  4.000000e+001 -5.500000e+000  2.810000e+001
      vertex  4.000000e+001 -6.262300e+000  3.122787e+001
    endloop
  endfacet
  facet normal  1.000000e+000  0.000000e+000  0.000000e+000
    outer loop
      vertex  4.000000e+001 -6.262300e+000  3.122787e+001
      vertex  4.000000e+001 -5.500000e+000  2.810000e+001
      vertex  4.000000e+001 -4.763140e+000  3.085000e+001
    endloop
  endfacet
  facet normal  1.000000e+000  0.000000e+000  -0.000000e+000
    outer loop
      vertex  4.000000e+001 -6.262300e+000  3.122787e+001
      vertex  4.000000e+001 -4.763140e+000  3.085000e+001
      vertex  4.000000e+001 -4.316885e+000  3.361040e+001
    endloop
  endfacet
  facet normal  1.000000e+000  0.000000e+000  0.000000e+000
    outer loop
      vertex  4.000000e+001 -4.316885e+000  3.361040e+001
      vertex  4.000000e+001 -4.763140e+000  3.085000e+001
      vertex  4.000000e+001 -2.750000e+000  3.286314e+001
    endloop
  endfacet
  facet normal  9.999999e-001  0.000000e+000  -0.000000e+000
    outer loop
      vertex  4.000000e+001 -4.316885e+000  3.361040e+001
      vertex  4.000000e+001 -2.750000e+000  3.286314e+001
      vertex  4.000000e+001  3.278869e-015  3.360000e+001
    endloop
  endfacet
  facet normal  9.999999e-001  0.000000e+000  0.000000e+000
    outer loop
      vertex  4.000000e+001 -7.569926e+000  2.251130e+001
      vertex  4.000000e+001 -4.174469e-015  2.260000e+001
      vertex  4.000000e+001 -6.664908e+000  2.313392e+001
    endloop
  endfacet
  facet normal  9.999999e-001  -0.000000e+000  0.000000e+000
    outer loop
      vertex  4.000000e+001 -6.664908e+000  2.313392e+001
      vertex  4.000000e+001 -4.174469e-015  2.260000e+001
      vertex  4.000000e+001 -2.750000e+000  2.333686e+001
    endloop
  endfacet
  facet normal  1.000000e+000  0.000000e+000  0.000000e+000
    outer loop
      vertex  4.000000e+001 -6.664908e+000  2.313392e+001
      vertex  4.000000e+001 -2.750000e+000  2.333686e+001
      vertex  4.000000e+001 -6.225233e+000  2.414060e+001
    endloop
  endfacet
  facet normal  1.000000e+000  -0.000000e+000  0.000000e+000
    outer loop
      vertex  4.000000e+001  4.316866e+000  3.361042e+001
      vertex  4.000000e+001  2.750000e+000  3.286314e+001
      vertex  4.000000e+001  6.262289e+000  3.122790e+001
    endloop
  endfacet
  facet normal  1.000000e+000  0.000000e+000  0.000000e+000
    outer loop
      vertex  4.000000e+001  6.262289e+000  3.122790e+001
      vertex  4.000000e+001  2.750000e+000  3.286314e+001
      vertex  4.000000e+001  4.763140e+000  3.085000e+001
    endloop
  endfacet
  facet normal  1.000000e+000  -0.000000e+000  0.000000e+000
    outer loop
      vertex  4.000000e+001  6.262289e+000  3.122790e+001
      vertex  4.000000e+001  4.763140e+000  3.085000e+001
      vertex  4.000000e+001  6.998571e+000  2.824144e+001
    endloop
  endfacet
  facet normal  1.000000e+000  0.000000e+000  0.000000e+000
    outer loop
      vertex  4.000000e+001  6.998571e+000  2.824144e+001
      vertex  4.000000e+001  4.763140e+000  3.085000e+001
      vertex  4.000000e+001  5.500000e+000  2.810000e+001
    endloop
  endfacet
  facet normal  1.000000e+000  -0.000000e+000  0.000000e+000
    outer loop
      vertex  4.000000e+001  6.998571e+000  2.824144e+001
      vertex  4.000000e+001  5.500000e+000  2.810000e+001
      vertex  4.000000e+001  6.383549e+000  2.522766e+001
    endloop
  endfacet
  facet normal  1.000000e+000  0.000000e+000  0.000000e+000
    outer loop
      vertex  4.000000e+001  6.383549e+000  2.522766e+001
      vertex  4.000000e+001  5.500000e+000  2.810000e+001
      vertex  4.000000e+001  4.763140e+000  2.535000e+001
    endloop
  endfacet
  facet normal  9.999999e-001  0.000000e+000  0.000000e+000
    outer loop
      vertex  4.000000e+001  6.383549e+000  2.522766e+001
      vertex  4.000000e+001  4.763140e+000  2.535000e+001
      vertex  4.000000e+001  6.225232e+000  2.414061e+001
    endloop
  endfacet
  facet normal  1.000000e+000  0.000000e+000  0.000000e+000
    outer loop
      vertex  4.000000e+001  6.225232e+000  2.414061e+001
      vertex  4.000000e+001  4.763140e+000  2.535000e+001
      vertex  4.000000e+001  2.750000e+000  2.333686e+001
    endloop
  endfacet
  facet normal  1.000000e+000  -0.000000e+000  0.000000e+000
    outer loop
      vertex  4.000000e+001  6.225232e+000  2.414061e+001
      vertex  4.000000e+001  2.750000e+000  2.333686e+001
      vertex  4.000000e+001  6.664918e+000  2.313391e+001
    endloop
  endfacet
  facet normal  1.000000e+000  0.000000e+000  0.000000e+000
    outer loop
      vertex  4.000000e+001 -4.174469e-015  2.260000e+001
      vertex  4.000000e+001  7.569959e+000  2.251129e+001
      vertex  4.000000e+001  2.750000e+000  2.333686e+001
    endloop
  endfacet
  facet normal  1.000000e+000  0.000000e+000  0.000000e+000
    outer loop
      vertex  4.000000e+001  2.750000e+000  2.333686e+001
      vertex  4.000000e+001  7.569959e+000  2.251129e+001
      vertex  4.000000e+001  6.664918e+000  2.313391e+001
    endloop
  endfacet
  facet normal -1.000000e+000  0.000000e+000  0.000000e+000
    outer loop
      vertex  0.000000e+000  2.750000e+000  3.286314e+001
      vertex  0.000000e+000  3.278869e-015  3.360000e+001
      vertex  0.000000e+000  4.316866e+000  3.361042e+001
    endloop
  endfacet
  facet normal -1.000000e+000  0.000000e+000  0.000000e+000
    outer loop
      vertex  0.000000e+000 -8.078280e-015  2.110000e+001
      vertex  0.000000e+000 -4.925697e+000  2.051701e+001
      vertex  0.000000e+000 -1.060645e+001  2.096785e+001
    endloop
  endfacet
  facet normal -1.000000e+000  0.000000e+000  0.000000e+000
    outer loop
      vertex  0.000000e+000 -8.078280e-015  2.110000e+001
      vertex  0.000000e+000 -1.060645e+001  2.096785e+001
      vertex  0.000000e+000 -1.052272e+001  2.121641e+001
    endloop
  endfacet
  facet normal -1.000000e+000  0.000000e+000  0.000000e+000
    outer loop
      vertex  0.000000e+000 -8.078280e-015  2.110000e+001
      vertex  0.000000e+000 -1.052272e+001  2.121641e+001
      vertex  0.000000e+000 -1.032470e+001  2.138839e+001
    endloop
  endfacet
  facet normal -1.000000e+000  0.000000e+000  0.000000e+000
    outer loop
      vertex  0.000000e+000 -8.078280e-015  2.110000e+001
      vertex  0.000000e+000 -1.032470e+001  2.138839e+001
      vertex  0.000000e+000 -7.569926e+000  2.251130e+001
    endloop
  endfacet
  facet normal -1.000000e+000  0.000000e+000  0.000000e+000
    outer loop
      vertex  0.000000e+000 -8.078280e-015  2.110000e+001
      vertex  0.000000e+000 -7.569926e+000  2.251130e+001
      vertex  0.000000e+000 -4.174469e-015  2.260000e+001
    endloop
  endfacet
  facet normal -9.999999e-001  0.000000e+000  -0.000000e+000
    outer loop
      vertex  0.000000e+000 -8.078280e-015  2.110000e+001
      vertex  0.000000e+000 -4.174469e-015  2.260000e+001
      vertex  0.000000e+000  7.569959e+000  2.251129e+001
    endloop
  endfacet
  facet normal -1.000000e+000  0.000000e+000  -0.000000e+000
    outer loop
      vertex  0.000000e+000 -8.078280e-015  2.110000e+001
      vertex  0.000000e+000  7.569959e+000  2.251129e+001
      vertex  0.000000e+000  1.032470e+001  2.138839e+001
    endloop
  endfacet
  facet normal -1.000000e+000  0.000000e+000  -0.000000e+000
    outer loop
      vertex  0.000000e+000 -8.078280e-015  2.110000e+001
      vertex  0.000000e+000  1.032470e+001  2.138839e+001
      vertex  0.000000e+000  1.052272e+001  2.121641e+001
    endloop
  endfacet
  facet normal -1.000000e+000  0.000000e+000  -0.000000e+000
    outer loop
      vertex  0.000000e+000 -8.078280e-015  2.110000e+001
      vertex  0.000000e+000  1.052272e+001  2.121641e+001
      vertex  0.000000e+000  1.060645e+001  2.096785e+001
    endloop
  endfacet
  facet normal -1.000000e+000  -0.000000e+000  0.000000e+000
    outer loop
      vertex  0.000000e+000 -8.078280e-015  2.110000e+001
      vertex  0.000000e+000  1.060645e+001  2.096785e+001
      vertex  0.000000e+000  4.925697e+000  2.051701e+001
    endloop
  endfacet
  facet normal -1.000000e+000  0.000000e+000  0.000000e+000
    outer loop
      vertex  0.000000e+000 -1.060645e+001  2.096785e+001
      vertex  0.000000e+000 -4.925697e+000  2.051701e+001
      vertex  0.000000e+000 -1.055284e+001  2.071111e+001
    endloop
  endfacet
  facet normal -1.000000e+000  0.000000e+000  0.000000e+000
    outer loop
      vertex  0.000000e+000 -1.055284e+001  2.071111e+001
      vertex  0.000000e+000 -4.925697e+000  2.051701e+001
      vertex  0.000000e+000 -9.579200e+000  1.880024e+001
    endloop
  endfacet
  facet normal -1.000000e+000  0.000000e+000  0.000000e+000
    outer loop
      vertex  0.000000e+000  9.579200e+000  1.880024e+001
      vertex  0.000000e+000  4.925697e+000  2.051701e+001
      vertex  0.000000e+000  1.055284e+001  2.071111e+001
    endloop
  endfacet
  facet normal -1.000000e+000  -0.000000e+000  0.000000e+000
    outer loop
      vertex  0.000000e+000  1.055284e+001  2.071111e+001
      vertex  0.000000e+000  4.925697e+000  2.051701e+001
      vertex  0.000000e+000  1.060645e+001  2.096785e+001
    endloop
  endfacet
  facet normal -1.000000e+000  0.000000e+000  -0.000000e+000
    outer loop
      vertex  0.000000e+000 -4.316885e+000  3.361040e+001
      vertex  0.000000e+000 -1.537954e+000  3.492896e+001
      vertex  0.000000e+000  3.278869e-015  3.360000e+001
    endloop
  endfacet
  facet normal -1.000000e+000  0.000000e+000  0.000000e+000
    outer loop
      vertex  0.000000e+000  3.278869e-015  3.360000e+001
      vertex  0.000000e+000 -1.537954e+000  3.492896e+001
      vertex  0.000000e+000  1.537930e+000  3.492897e+001
    endloop
  endfacet
  facet normal -1.000000e+000  0.000000e+000  -0.000000e+000
    outer loop
      vertex  0.000000e+000  3.278869e-015  3.360000e+001
      vertex  0.000000e+000  1.537930e+000  3.492897e+001
      vertex  0.000000e+000  4.316866e+000  3.361042e+001
    endloop
  endfacet
  facet normal -9.999999e-001  0.000000e+000  0.000000e+000
    outer loop
      vertex  0.000000e+000  3.278869e-015  3.360000e+001
      vertex  0.000000e+000 -2.750000e+000  3.286314e+001
      vertex  0.000000e+000 -4.316885e+000  3.361040e+001
    endloop
  endfacet
  facet normal -1.000000e+000  0.000000e+000  -0.000000e+000
    outer loop
      vertex  0.000000e+000 -4.316885e+000  3.361040e+001
      vertex  0.000000e+000 -2.750000e+000  3.286314e+001
      vertex  0.000000e+000 -4.763140e+000  3.085000e+001
    endloop
  endfacet
  facet normal -1.000000e+000  0.000000e+000  0.000000e+000
    outer loop
      vertex  0.000000e+000 -4.316885e+000  3.361040e+001
      vertex  0.000000e+000 -4.763140e+000  3.085000e+001
      vertex  0.000000e+000 -6.262300e+000  3.122787e+001
    endloop
  endfacet
  facet normal -1.000000e+000  0.000000e+000  0.000000e+000
    outer loop
      vertex  0.000000e+000 -6.262300e+000  3.122787e+001
      vertex  0.000000e+000 -4.763140e+000  3.085000e+001
      vertex  0.000000e+000 -5.500000e+000  2.810000e+001
    endloop
  endfacet
  facet normal -1.000000e+000  0.000000e+000  0.000000e+000
    outer loop
      vertex  0.000000e+000 -6.262300e+000  3.122787e+001
      vertex  0.000000e+000 -5.500000e+000  2.810000e+001
      vertex  0.000000e+000 -6.998571e+000  2.824141e+001
    endloop
  endfacet
  facet normal -1.000000e+000  0.000000e+000  0.000000e+000
    outer loop
      vertex  0.000000e+000 -6.998571e+000  2.824141e+001
      vertex  0.000000e+000 -5.500000e+000  2.810000e+001
      vertex  0.000000e+000 -4.763140e+000  2.535000e+001
    endloop
  endfacet
  facet normal -1.000000e+000  -0.000000e+000  0.000000e+000
    outer loop
      vertex  0.000000e+000 -6.998571e+000  2.824141e+001
      vertex  0.000000e+000 -4.763140e+000  2.535000e+001
      vertex  0.000000e+000 -6.383538e+000  2.522764e+001
    endloop
  endfacet
  facet normal -1.000000e+000  0.000000e+000  0.000000e+000
    outer loop
      vertex  0.000000e+000 -6.383538e+000  2.522764e+001
      vertex  0.000000e+000 -4.763140e+000  2.535000e+001
      vertex  0.000000e+000 -2.750000e+000  2.333686e+001
    endloop
  endfacet
  facet normal -1.000000e+000  0.000000e+000  0.000000e+000
    outer loop
      vertex  0.000000e+000 -6.383538e+000  2.522764e+001
      vertex  0.000000e+000 -2.750000e+000  2.333686e+001
      vertex  0.000000e+000 -6.225233e+000  2.414060e+001
    endloop
  endfacet
  facet normal -1.000000e+000  -0.000000e+000  0.000000e+000
    outer loop
      vertex  0.000000e+000 -6.225233e+000  2.414060e+001
      vertex  0.000000e+000 -2.750000e+000  2.333686e+001
      vertex  0.000000e+000 -6.664908e+000  2.313392e+001
    endloop
  endfacet
  facet normal -9.999999e-001  0.000000e+000  0.000000e+000
    outer loop
      vertex  0.000000e+000 -6.664908e+000  2.313392e+001
      vertex  0.000000e+000 -2.750000e+000  2.333686e+001
      vertex  0.000000e+000 -4.174469e-015  2.260000e+001
    endloop
  endfacet
  facet normal -9.999999e-001  -0.000000e+000  0.000000e+000
    outer loop
      vertex  0.000000e+000 -6.664908e+000  2.313392e+001
      vertex  0.000000e+000 -4.174469e-015  2.260000e+001
      vertex  0.000000e+000 -7.569926e+000  2.251130e+001
    endloop
  endfacet
  facet normal -1.000000e+000  0.000000e+000  0.000000e+000
    outer loop
      vertex  0.000000e+000  6.664918e+000  2.313391e+001
      vertex  0.000000e+000  2.750000e+000  2.333686e+001
      vertex  0.000000e+000  6.225232e+000  2.414061e+001
    endloop
  endfacet
  facet normal -1.000000e+000  -0.000000e+000  0.000000e+000
    outer loop
      vertex  0.000000e+000  6.225232e+000  2.414061e+001
      vertex  0.000000e+000  2.750000e+000  2.333686e+001
      vertex  0.000000e+000  4.763140e+000  2.535000e+001
    endloop
  endfacet
  facet normal -9.999999e-001  0.000000e+000  0.000000e+000
    outer loop
      vertex  0.000000e+000  6.225232e+000  2.414061e+001
      vertex  0.000000e+000  4.763140e+000  2.535000e+001
      vertex  0.000000e+000  6.383549e+000  2.522766e+001
    endloop
  endfacet
  facet normal -1.000000e+000  0.000000e+000  0.000000e+000
    outer loop
      vertex  0.000000e+000  6.383549e+000  2.522766e+001
      vertex  0.000000e+000  4.763140e+000  2.535000e+001
      vertex  0.000000e+000  5.500000e+000  2.810000e+001
    endloop
  endfacet
  facet normal -1.000000e+000  0.000000e+000  0.000000e+000
    outer loop
      vertex  0.000000e+000  6.383549e+000  2.522766e+001
      vertex  0.000000e+000  5.500000e+000  2.810000e+001
      vertex  0.000000e+000  6.998571e+000  2.824144e+001
    endloop
  endfacet
  facet normal -1.000000e+000  -0.000000e+000  0.000000e+000
    outer loop
      vertex  0.000000e+000  6.998571e+000  2.824144e+001
      vertex  0.000000e+000  5.500000e+000  2.810000e+001
      vertex  0.000000e+000  4.763140e+000  3.085000e+001
    endloop
  endfacet
  facet normal -1.000000e+000  0.000000e+000  0.000000e+000
    outer loop
      vertex  0.000000e+000  6.998571e+000  2.824144e+001
      vertex  0.000000e+000  4.763140e+000  3.085000e+001
      vertex  0.000000e+000  6.262289e+000  3.122790e+001
    endloop
  endfacet
  facet normal -1.000000e+000  -0.000000e+000  0.000000e+000
    outer loop
      vertex  0.000000e+000  6.262289e+000  3.122790e+001
      vertex  0.000000e+000  4.763140e+000  3.085000e+001
      vertex  0.000000e+000  2.750000e+000  3.286314e+001
    endloop
  endfacet
  facet normal -1.000000e+000  0.000000e+000  0.000000e+000
    outer loop
      vertex  0.000000e+000  6.262289e+000  3.122790e+001
      vertex  0.000000e+000  2.750000e+000  3.286314e+001
      vertex  0.000000e+000  4.316866e+000  3.361042e+001
    endloop
  endfacet
  facet normal -1.000000e+000  0.000000e+000  -0.000000e+000
    outer loop
      vertex  0.000000e+000 -4.174469e-015  2.260000e+001
      vertex  0.000000e+000  2.750000e+000  2.333686e+001
      vertex  0.000000e+000  7.569959e+000  2.251129e+001
    endloop
  endfacet
  facet normal -1.000000e+000  0.000000e+000  0.000000e+000
    outer loop
      vertex  0.000000e+000  7.569959e+000  2.251129e+001
      vertex  0.000000e+000  2.750000e+000  2.333686e+001
      vertex  0.000000e+000  6.664918e+000  2.313391e+001
    endloop
  endfacet
  facet normal  -0.000000e+000  3.774708e-001  9.260215e-001
    outer loop
      vertex  4.000000e+001  1.032470e+001  2.138839e+001
      vertex  0.000000e+000  1.032470e+001  2.138839e+001
      vertex  4.000000e+001  7.569959e+000  2.251129e+001
    endloop
  endfacet
  facet normal  0.000000e+000  3.774708e-001  9.260215e-001
    outer loop
      vertex  4.000000e+001  7.569959e+000  2.251129e+001
      vertex  0.000000e+000  1.032470e+001  2.138839e+001
      vertex  0.000000e+000  7.569959e+000  2.251129e+001
    endloop
  endfacet
  facet normal  0.000000e+000  8.910065e-001 -4.539905e-001
    outer loop
      vertex  0.000000e+000  9.579200e+000  1.880024e+001
      vertex  0.000000e+000  1.055284e+001  2.071111e+001
      vertex  4.000000e+001  9.579200e+000  1.880024e+001
    endloop
  endfacet
  facet normal  0.000000e+000  8.910065e-001 -4.539905e-001
    outer loop
      vertex  4.000000e+001  9.579200e+000  1.880024e+001
      vertex  0.000000e+000  1.055284e+001  2.071111e+001
      vertex  4.000000e+001  1.055284e+001  2.071111e+001
    endloop
  endfacet
  facet normal  0.000000e+000  9.788868e-001 -2.044029e-001
    outer loop
      vertex  4.000000e+001  1.055284e+001  2.071111e+001
      vertex  0.000000e+000  1.055284e+001  2.071111e+001
      vertex  4.000000e+001  1.060645e+001  2.096785e+001
    endloop
  endfacet
  facet normal  0.000000e+000  9.788868e-001 -2.044029e-001
    outer loop
      vertex  4.000000e+001  1.060645e+001  2.096785e+001
      vertex  0.000000e+000  1.055284e+001  2.071111e+001
      vertex  0.000000e+000  1.060645e+001  2.096785e+001
    endloop
  endfacet
  facet normal  -0.000000e+000  9.476779e-001  3.192281e-001
    outer loop
      vertex  4.000000e+001  1.060645e+001  2.096785e+001
      vertex  0.000000e+000  1.060645e+001  2.096785e+001
      vertex  4.000000e+001  1.052272e+001  2.121641e+001
    endloop
  endfacet
  facet normal  0.000000e+000  9.476779e-001  3.192281e-001
    outer loop
      vertex  4.000000e+001  1.052272e+001  2.121641e+001
      vertex  0.000000e+000  1.060645e+001  2.096785e+001
      vertex  0.000000e+000  1.052272e+001  2.121641e+001
    endloop
  endfacet
  facet normal  -0.000000e+000  6.557047e-001  7.550175e-001
    outer loop
      vertex  4.000000e+001  1.052272e+001  2.121641e+001
      vertex  0.000000e+000  1.052272e+001  2.121641e+001
      vertex  4.000000e+001  1.032470e+001  2.138839e+001
    endloop
  endfacet
  facet normal  0.000000e+000  6.557047e-001  7.550175e-001
    outer loop
      vertex  4.000000e+001  1.032470e+001  2.138839e+001
      vertex  0.000000e+000  1.052272e+001  2.121641e+001
      vertex  0.000000e+000  1.032470e+001  2.138839e+001
    endloop
  endfacet
  facet normal  -0.000000e+000 -8.910065e-001 -4.539905e-001
    outer loop
      vertex  0.000000e+000 -9.579200e+000  1.880024e+001
      vertex  4.000000e+001 -9.579200e+000  1.880024e+001
      vertex  0.000000e+000 -1.055284e+001  2.071111e+001
    endloop
  endfacet
  facet normal  0.000000e+000 -8.910065e-001 -4.539905e-001
    outer loop
      vertex  0.000000e+000 -1.055284e+001  2.071111e+001
      vertex  4.000000e+001 -9.579200e+000  1.880024e+001
      vertex  4.000000e+001 -1.055284e+001  2.071111e+001
    endloop
  endfacet
  facet normal  0.000000e+000 -3.774703e-001  9.260217e-001
    outer loop
      vertex  4.000000e+001 -7.569926e+000  2.251130e+001
      vertex  0.000000e+000 -7.569926e+000  2.251130e+001
      vertex  4.000000e+001 -1.032470e+001  2.138839e+001
    endloop
  endfacet
  facet normal  0.000000e+000 -3.774703e-001  9.260217e-001
    outer loop
      vertex  4.000000e+001 -1.032470e+001  2.138839e+001
      vertex  0.000000e+000 -7.569926e+000  2.251130e+001
      vertex  0.000000e+000 -1.032470e+001  2.138839e+001
    endloop
  endfacet
  facet normal  -0.000000e+000 -9.788868e-001 -2.044029e-001
    outer loop
      vertex  0.000000e+000 -1.055284e+001  2.071111e+001
      vertex  4.000000e+001 -1.055284e+001  2.071111e+001
      vertex  0.000000e+000 -1.060645e+001  2.096785e+001
    endloop
  endfacet
  facet normal  0.000000e+000 -9.788868e-001 -2.044029e-001
    outer loop
      vertex  0.000000e+000 -1.060645e+001  2.096785e+001
      vertex  4.000000e+001 -1.055284e+001  2.071111e+001
      vertex  4.000000e+001 -1.060645e+001  2.096785e+001
    endloop
  endfacet
  facet normal  0.000000e+000 -9.476779e-001  3.192281e-001
    outer loop
      vertex  0.000000e+000 -1.060645e+001  2.096785e+001
      vertex  4.000000e+001 -1.060645e+001  2.096785e+001
      vertex  0.000000e+000 -1.052272e+001  2.121641e+001
    endloop
  endfacet
  facet normal  0.000000e+000 -9.476779e-001  3.192281e-001
    outer loop
      vertex  0.000000e+000 -1.052272e+001  2.121641e+001
      vertex  4.000000e+001 -1.060645e+001  2.096785e+001
      vertex  4.000000e+001 -1.052272e+001  2.121641e+001
    endloop
  endfacet
  facet normal  0.000000e+000 -6.557047e-001  7.550175e-001
    outer loop
      vertex  0.000000e+000 -1.052272e+001  2.121641e+001
      vertex  4.000000e+001 -1.052272e+001  2.121641e+001
      vertex  0.000000e+000 -1.032470e+001  2.138839e+001
    endloop
  endfacet
  facet normal  0.000000e+000 -6.557047e-001  7.550175e-001
    outer loop
      vertex  0.000000e+000 -1.032470e+001  2.138839e+001
      vertex  4.000000e+001 -1.052272e+001  2.121641e+001
      vertex  4.000000e+001 -1.032470e+001  2.138839e+001
    endloop
  endfacet
  facet normal  0.000000e+000  2.588184e-001 -9.659260e-001
    outer loop
      vertex  0.000000e+000  3.278869e-015  3.360000e+001
      vertex  4.000000e+001 -2.750000e+000  3.286314e+001
      vertex  0.000000e+000 -2.750000e+000  3.286314e+001
    endloop
  endfacet
  facet normal  0.000000e+000  7.071068e-001 -7.071068e-001
    outer loop
      vertex  0.000000e+000 -2.750000e+000  3.286314e+001
      vertex  4.000000e+001 -2.750000e+000  3.286314e+001
      vertex  4.000000e+001 -4.763140e+000  3.085000e+001
    endloop
  endfacet
  facet normal  0.000000e+000  7.071068e-001 -7.071068e-001
    outer loop
      vertex  0.000000e+000 -2.750000e+000  3.286314e+001
      vertex  4.000000e+001 -4.763140e+000  3.085000e+001
      vertex  0.000000e+000 -4.763140e+000  3.085000e+001
    endloop
  endfacet
  facet normal  0.000000e+000  9.659259e-001 -2.588191e-001
    outer loop
      vertex  0.000000e+000 -4.763140e+000  3.085000e+001
      vertex  4.000000e+001 -4.763140e+000  3.085000e+001
      vertex  4.000000e+001 -5.500000e+000  2.810000e+001
    endloop
  endfacet
  facet normal  0.000000e+000  9.659259e-001 -2.588191e-001
    outer loop
      vertex  0.000000e+000 -4.763140e+000  3.085000e+001
      vertex  4.000000e+001 -5.500000e+000  2.810000e+001
      vertex  0.000000e+000 -5.500000e+000  2.810000e+001
    endloop
  endfacet
  facet normal  0.000000e+000  2.588184e-001 -9.659260e-001
    outer loop
      vertex  4.000000e+001 -2.750000e+000  3.286314e+001
      vertex  0.000000e+000  3.278869e-015  3.360000e+001
      vertex  4.000000e+001  3.278869e-015  3.360000e+001
    endloop
  endfacet
  facet normal  -0.000000e+000 -2.588184e-001 -9.659260e-001
    outer loop
      vertex  4.000000e+001  3.278869e-015  3.360000e+001
      vertex  0.000000e+000  3.278869e-015  3.360000e+001
      vertex  0.000000e+000  2.750000e+000  3.286314e+001
    endloop
  endfacet
  facet normal  0.000000e+000 -2.588184e-001 -9.659260e-001
    outer loop
      vertex  4.000000e+001  3.278869e-015  3.360000e+001
      vertex  0.000000e+000  2.750000e+000  3.286314e+001
      vertex  4.000000e+001  2.750000e+000  3.286314e+001
    endloop
  endfacet
  facet normal  -0.000000e+000 -7.071068e-001 -7.071068e-001
    outer loop
      vertex  4.000000e+001  2.750000e+000  3.286314e+001
      vertex  0.000000e+000  2.750000e+000  3.286314e+001
      vertex  0.000000e+000  4.763140e+000  3.085000e+001
    endloop
  endfacet
  facet normal  0.000000e+000 -7.071068e-001 -7.071068e-001
    outer loop
      vertex  4.000000e+001  2.750000e+000  3.286314e+001
      vertex  0.000000e+000  4.763140e+000  3.085000e+001
      vertex  4.000000e+001  4.763140e+000  3.085000e+001
    endloop
  endfacet
  facet normal  -0.000000e+000 -9.659259e-001 -2.588191e-001
    outer loop
      vertex  4.000000e+001  4.763140e+000  3.085000e+001
      vertex  0.000000e+000  4.763140e+000  3.085000e+001
      vertex  0.000000e+000  5.500000e+000  2.810000e+001
    endloop
  endfacet
  facet normal  0.000000e+000 -9.659259e-001 -2.588191e-001
    outer loop
      vertex  4.000000e+001  4.763140e+000  3.085000e+001
      vertex  0.000000e+000  5.500000e+000  2.810000e+001
      vertex  4.000000e+001  5.500000e+000  2.810000e+001
    endloop
  endfacet
  facet normal  0.000000e+000 -2.588191e-001  9.659259e-001
    outer loop
      vertex  0.000000e+000 -4.174469e-015  2.260000e+001
      vertex  4.000000e+001  2.750000e+000  2.333686e+001
      vertex  0.000000e+000  2.750000e+000  2.333686e+001
    endloop
  endfacet
  facet normal  0.000000e+000 -7.071068e-001  7.071068e-001
    outer loop
      vertex  0.000000e+000  2.750000e+000  2.333686e+001
      vertex  4.000000e+001  2.750000e+000  2.333686e+001
      vertex  4.000000e+001  4.763140e+000  2.535000e+001
    endloop
  endfacet
  facet normal  0.000000e+000 -7.071068e-001  7.071068e-001
    outer loop
      vertex  0.000000e+000  2.750000e+000  2.333686e+001
      vertex  4.000000e+001  4.763140e+000  2.535000e+001
      vertex  0.000000e+000  4.763140e+000  2.535000e+001
    endloop
  endfacet
  facet normal  0.000000e+000 -9.659259e-001  2.588191e-001
    outer loop
      vertex  0.000000e+000  4.763140e+000  2.535000e+001
      vertex  4.000000e+001  4.763140e+000  2.535000e+001
      vertex  4.000000e+001  5.500000e+000  2.810000e+001
    endloop
  endfacet
  facet normal  0.000000e+000 -9.659259e-001  2.588191e-001
    outer loop
      vertex  0.000000e+000  4.763140e+000  2.535000e+001
      vertex  4.000000e+001  5.500000e+000  2.810000e+001
      vertex  0.000000e+000  5.500000e+000  2.810000e+001
    endloop
  endfacet
  facet normal  0.000000e+000 -2.588191e-001  9.659259e-001
    outer loop
      vertex  4.000000e+001  2.750000e+000  2.333686e+001
      vertex  0.000000e+000 -4.174469e-015  2.260000e+001
      vertex  4.000000e+001 -4.174469e-015  2.260000e+001
    endloop
  endfacet
  facet normal  0.000000e+000  2.588191e-001  9.659259e-001
    outer loop
      vertex  4.000000e+001 -4.174469e-015  2.260000e+001
      vertex  0.000000e+000 -4.174469e-015  2.260000e+001
      vertex  0.000000e+000 -2.750000e+000  2.333686e+001
    endloop
  endfacet
  facet normal  -0.000000e+000  2.588191e-001  9.659259e-001
    outer loop
      vertex  4.000000e+001 -4.174469e-015  2.260000e+001
      vertex  0.000000e+000 -2.750000e+000  2.333686e+001
      vertex  4.000000e+001 -2.750000e+000  2.333686e+001
    endloop
  endfacet
  facet normal  0.000000e+000  7.071068e-001  7.071068e-001
    outer loop
      vertex  4.000000e+001 -2.750000e+000  2.333686e+001
      vertex  0.000000e+000 -2.750000e+000  2.333686e+001
      vertex  0.000000e+000 -4.763140e+000  2.535000e+001
    endloop
  endfacet
  facet normal  -0.000000e+000  7.071068e-001  7.071068e-001
    outer loop
      vertex  4.000000e+001 -2.750000e+000  2.333686e+001
      vertex  0.000000e+000 -4.763140e+000  2.535000e+001
      vertex  4.000000e+001 -4.763140e+000  2.535000e+001
    endloop
  endfacet
  facet normal  0.000000e+000  9.659259e-001  2.588191e-001
    outer loop
      vertex  4.000000e+001 -4.763140e+000  2.535000e+001
      vertex  0.000000e+000 -4.763140e+000  2.535000e+001
      vertex  0.000000e+000 -5.500000e+000  2.810000e+001
    endloop
  endfacet
  facet normal  -0.000000e+000  9.659259e-001  2.588191e-001
    outer loop
      vertex  4.000000e+001 -4.763140e+000  2.535000e+001
      vertex  0.000000e+000 -5.500000e+000  2.810000e+001
      vertex  4.000000e+001 -5.500000e+000  2.810000e+001
    endloop
  endfacet
  facet normal  0.000000e+000  1.175373e-001 -9.930684e-001
    outer loop
      vertex  0.000000e+000 -8.078280e-015  2.110000e+001
      vertex  4.000000e+001 -4.925697e+000  2.051701e+001
      vertex  0.000000e+000 -4.925697e+000  2.051701e+001
    endloop
  endfacet
  facet normal  0.000000e+000  3.461171e-001 -9.381912e-001
    outer loop
      vertex  0.000000e+000 -4.925697e+000  2.051701e+001
      vertex  4.000000e+001 -4.925697e+000  2.051701e+001
      vertex  4.000000e+001 -9.579200e+000  1.880024e+001
    endloop
  endfacet
  facet normal  0.000000e+000  3.461171e-001 -9.381912e-001
    outer loop
      vertex  0.000000e+000 -4.925697e+000  2.051701e+001
      vertex  4.000000e+001 -9.579200e+000  1.880024e+001
      vertex  0.000000e+000 -9.579200e+000  1.880024e+001
    endloop
  endfacet
  facet normal  0.000000e+000  1.175373e-001 -9.930684e-001
    outer loop
      vertex  4.000000e+001 -4.925697e+000  2.051701e+001
      vertex  0.000000e+000 -8.078280e-015  2.110000e+001
      vertex  4.000000e+001 -8.078280e-015  2.110000e+001
    endloop
  endfacet
  facet normal  -0.000000e+000 -1.175373e-001 -9.930684e-001
    outer loop
      vertex  4.000000e+001 -8.078280e-015  2.110000e+001
      vertex  0.000000e+000 -8.078280e-015  2.110000e+001
      vertex  0.000000e+000  4.925697e+000  2.051701e+001
    endloop
  endfacet
  facet normal  0.000000e+000 -1.175373e-001 -9.930684e-001
    outer loop
      vertex  4.000000e+001 -8.078280e-015  2.110000e+001
      vertex  0.000000e+000  4.925697e+000  2.051701e+001
      vertex  4.000000e+001  4.925697e+000  2.051701e+001
    endloop
  endfacet
  facet normal  -0.000000e+000 -3.461171e-001 -9.381912e-001
    outer loop
      vertex  4.000000e+001  4.925697e+000  2.051701e+001
      vertex  0.000000e+000  4.925697e+000  2.051701e+001
      vertex  0.000000e+000  9.579200e+000  1.880024e+001
    endloop
  endfacet
  facet normal  0.000000e+000 -3.461171e-001 -9.381912e-001
    outer loop
      vertex  4.000000e+001  4.925697e+000  2.051701e+001
      vertex  0.000000e+000  9.579200e+000  1.880024e+001
      vertex  4.000000e+001  9.579200e+000  1.880024e+001
    endloop
  endfacet
  facet normal  -0.000000e+000 -9.895616e-001 -1.441099e-001
    outer loop
      vertex  0.000000e+000 -6.225233e+000  2.414060e+001
      vertex  4.000000e+001 -6.383538e+000  2.522764e+001
      vertex  0.000000e+000 -6.383538e+000  2.522764e+001
    endloop
  endfacet
  facet normal  0.000000e+000 -9.895616e-001 -1.441099e-001
    outer loop
      vertex  4.000000e+001 -6.383538e+000  2.522764e+001
      vertex  0.000000e+000 -6.225233e+000  2.414060e+001
      vertex  4.000000e+001 -6.225233e+000  2.414060e+001
    endloop
  endfacet
  facet normal  0.000000e+000 -9.164065e-001  4.002490e-001
    outer loop
      vertex  4.000000e+001 -6.225233e+000  2.414060e+001
      vertex  0.000000e+000 -6.225233e+000  2.414060e+001
      vertex  0.000000e+000 -6.664908e+000  2.313392e+001
    endloop
  endfacet
  facet normal  0.000000e+000 -9.164065e-001  4.002490e-001
    outer loop
      vertex  4.000000e+001 -6.225233e+000  2.414060e+001
      vertex  0.000000e+000 -6.664908e+000  2.313392e+001
      vertex  4.000000e+001 -6.664908e+000  2.313392e+001
    endloop
  endfacet
  facet normal  0.000000e+000 -5.667895e-001  8.238627e-001
    outer loop
      vertex  4.000000e+001 -6.664908e+000  2.313392e+001
      vertex  0.000000e+000 -6.664908e+000  2.313392e+001
      vertex  0.000000e+000 -7.569926e+000  2.251130e+001
    endloop
  endfacet
  facet normal  0.000000e+000 -5.667895e-001  8.238627e-001
    outer loop
      vertex  4.000000e+001 -6.664908e+000  2.313392e+001
      vertex  0.000000e+000 -7.569926e+000  2.251130e+001
      vertex  4.000000e+001 -7.569926e+000  2.251130e+001
    endloop
  endfacet
  facet normal  -0.000000e+000 -9.798055e-001 -1.999532e-001
    outer loop
      vertex  0.000000e+000 -6.383538e+000  2.522764e+001
      vertex  4.000000e+001 -6.383538e+000  2.522764e+001
      vertex  0.000000e+000 -6.998571e+000  2.824141e+001
    endloop
  endfacet
  facet normal  0.000000e+000 -9.798055e-001 -1.999532e-001
    outer loop
      vertex  0.000000e+000 -6.998571e+000  2.824141e+001
      vertex  4.000000e+001 -6.383538e+000  2.522764e+001
      vertex  4.000000e+001 -6.998571e+000  2.824141e+001
    endloop
  endfacet
  facet normal  0.000000e+000 -9.709287e-001  2.393691e-001
    outer loop
      vertex  0.000000e+000 -6.998571e+000  2.824141e+001
      vertex  4.000000e+001 -6.998571e+000  2.824141e+001
      vertex  0.000000e+000 -6.262300e+000  3.122787e+001
    endloop
  endfacet
  facet normal  0.000000e+000 -9.709287e-001  2.393691e-001
    outer loop
      vertex  0.000000e+000 -6.262300e+000  3.122787e+001
      vertex  4.000000e+001 -6.998571e+000  2.824141e+001
      vertex  4.000000e+001 -6.262300e+000  3.122787e+001
    endloop
  endfacet
  facet normal  0.000000e+000 -7.745819e-001  6.324737e-001
    outer loop
      vertex  0.000000e+000 -6.262300e+000  3.122787e+001
      vertex  4.000000e+001 -6.262300e+000  3.122787e+001
      vertex  0.000000e+000 -4.316885e+000  3.361040e+001
    endloop
  endfacet
  facet normal  0.000000e+000 -7.745819e-001  6.324737e-001
    outer loop
      vertex  0.000000e+000 -4.316885e+000  3.361040e+001
      vertex  4.000000e+001 -6.262300e+000  3.122787e+001
      vertex  4.000000e+001 -4.316885e+000  3.361040e+001
    endloop
  endfacet
  facet normal  0.000000e+000 -4.286773e-001  9.034576e-001
    outer loop
      vertex  0.000000e+000 -4.316885e+000  3.361040e+001
      vertex  4.000000e+001 -4.316885e+000  3.361040e+001
      vertex  0.000000e+000 -1.537954e+000  3.492896e+001
    endloop
  endfacet
  facet normal  0.000000e+000 -4.286773e-001  9.034576e-001
    outer loop
      vertex  0.000000e+000 -1.537954e+000  3.492896e+001
      vertex  4.000000e+001 -4.316885e+000  3.361040e+001
      vertex  4.000000e+001 -1.537954e+000  3.492896e+001
    endloop
  endfacet
  facet normal  0.000000e+000 -2.480391e-006  9.999999e-001
    outer loop
      vertex  0.000000e+000 -1.537954e+000  3.492896e+001
      vertex  4.000000e+001 -1.537954e+000  3.492896e+001
      vertex  0.000000e+000  1.537930e+000  3.492897e+001
    endloop
  endfacet
  facet normal  0.000000e+000 -2.480391e-006  9.999999e-001
    outer loop
      vertex  0.000000e+000  1.537930e+000  3.492897e+001
      vertex  4.000000e+001 -1.537954e+000  3.492896e+001
      vertex  4.000000e+001  1.537930e+000  3.492897e+001
    endloop
  endfacet
  facet normal  0.000000e+000  4.286736e-001  9.034594e-001
    outer loop
      vertex  0.000000e+000  1.537930e+000  3.492897e+001
      vertex  4.000000e+001  1.537930e+000  3.492897e+001
      vertex  0.000000e+000  4.316866e+000  3.361042e+001
    endloop
  endfacet
  facet normal  -0.000000e+000  4.286736e-001  9.034594e-001
    outer loop
      vertex  0.000000e+000  4.316866e+000  3.361042e+001
      vertex  4.000000e+001  1.537930e+000  3.492897e+001
      vertex  4.000000e+001  4.316866e+000  3.361042e+001
    endloop
  endfacet
  facet normal  0.000000e+000  7.745802e-001  6.324756e-001
    outer loop
      vertex  0.000000e+000  4.316866e+000  3.361042e+001
      vertex  4.000000e+001  4.316866e+000  3.361042e+001
      vertex  0.000000e+000  6.262289e+000  3.122790e+001
    endloop
  endfacet
  facet normal  -0.000000e+000  7.745802e-001  6.324756e-001
    outer loop
      vertex  0.000000e+000  6.262289e+000  3.122790e+001
      vertex  4.000000e+001  4.316866e+000  3.361042e+001
      vertex  4.000000e+001  6.262289e+000  3.122790e+001
    endloop
  endfacet
  facet normal  0.000000e+000  9.709278e-001  2.393726e-001
    outer loop
      vertex  0.000000e+000  6.262289e+000  3.122790e+001
      vertex  4.000000e+001  6.262289e+000  3.122790e+001
      vertex  0.000000e+000  6.998571e+000  2.824144e+001
    endloop
  endfacet
  facet normal  -0.000000e+000  9.709278e-001  2.393726e-001
    outer loop
      vertex  0.000000e+000  6.998571e+000  2.824144e+001
      vertex  4.000000e+001  6.262289e+000  3.122790e+001
      vertex  4.000000e+001  6.998571e+000  2.824144e+001
    endloop
  endfacet
  facet normal  0.000000e+000  9.798062e-001 -1.999497e-001
    outer loop
      vertex  0.000000e+000  6.998571e+000  2.824144e+001
      vertex  4.000000e+001  6.998571e+000  2.824144e+001
      vertex  0.000000e+000  6.383549e+000  2.522766e+001
    endloop
  endfacet
  facet normal  0.000000e+000  9.798062e-001 -1.999497e-001
    outer loop
      vertex  0.000000e+000  6.383549e+000  2.522766e+001
      vertex  4.000000e+001  6.998571e+000  2.824144e+001
      vertex  4.000000e+001  6.383549e+000  2.522766e+001
    endloop
  endfacet
  facet normal  0.000000e+000  5.667798e-001  8.238694e-001
    outer loop
      vertex  0.000000e+000  6.664918e+000  2.313391e+001
      vertex  4.000000e+001  7.569959e+000  2.251129e+001
      vertex  0.000000e+000  7.569959e+000  2.251129e+001
    endloop
  endfacet
  facet normal  -0.000000e+000  5.667798e-001  8.238694e-001
    outer loop
      vertex  4.000000e+001  7.569959e+000  2.251129e+001
      vertex  0.000000e+000  6.664918e+000  2.313391e+001
      vertex  4.000000e+001  6.664918e+000  2.313391e+001
    endloop
  endfacet
  facet normal  0.000000e+000  9.164054e-001  4.002513e-001
    outer loop
      vertex  4.000000e+001  6.664918e+000  2.313391e+001
      vertex  0.000000e+000  6.664918e+000  2.313391e+001
      vertex  0.000000e+000  6.225232e+000  2.414061e+001
    endloop
  endfacet
  facet normal  -0.000000e+000  9.164054e-001  4.002513e-001
    outer loop
      vertex  4.000000e+001  6.664918e+000  2.313391e+001
      vertex  0.000000e+000  6.225232e+000  2.414061e+001
      vertex  4.000000e+001  6.225232e+000  2.414061e+001
    endloop
  endfacet
  facet normal  0.000000e+000  9.895605e-001 -1.441178e-001
    outer loop
      vertex  4.000000e+001  6.225232e+000  2.414061e+001
      vertex  0.000000e+000  6.225232e+000  2.414061e+001
      vertex  0.000000e+000  6.383549e+000  2.522766e+001
    endloop
  endfacet
  facet normal  0.000000e+000  9.895605e-001 -1.441178e-001
    outer loop
      vertex  4.000000e+001  6.225232e+000  2.414061e+001
      vertex  0.000000e+000  6.383549e+000  2.522766e+001
      vertex  4.000000e+001  6.383549e+000  2.522766e+001
    endloop
  endfacet
endsolid CATIA STL
